<svg width="40" height="34" viewBox="0 0 40 34" fill="none" xmlns="http://www.w3.org/2000/svg">
<path d="M15.8913 4.74223H24.0294C24.3471 4.74223 24.6623 4.75549 24.9741 4.78145C25.7214 4.84325 26.4396 4.48205 26.8135 3.83189C27.5107 2.6196 26.7147 1.08759 25.3209 0.970196C24.8948 0.934358 24.4642 0.916016 24.0291 0.916016H15.9469C7.50432 0.916016 0.376479 7.8229 0.435174 16.2655C0.463958 20.4312 2.16613 24.2001 4.89998 26.9339C7.65755 29.6915 11.468 31.3959 15.6763 31.3959H24.0291C24.4642 31.3959 24.8951 31.3776 25.3209 31.3417C26.7147 31.2241 27.5105 29.6923 26.8135 28.4801C26.4396 27.8299 25.7214 27.4687 24.9741 27.5305C24.6623 27.5565 24.3468 27.5697 24.0291 27.5697H15.6763C9.2886 27.5697 4.11042 22.2976 4.26449 15.8791C4.41405 9.64811 9.65912 4.74223 15.8913 4.74223Z" fill="url(#paint0_linear_6891_2081)"/>
<path d="M4.83563 24.2363L2.08428 31.2677C1.6418 32.3981 2.82418 33.48 3.91118 32.9396L11.6229 29.1044L4.83563 24.2363Z" fill="#FFC19E"/>
<path d="M30.3098 9.89827C29.8315 9.41798 29.2931 8.99103 28.7101 8.6287C28.3317 8.39279 27.8847 8.32308 27.4501 8.43201C27.0141 8.5415 26.6501 8.81692 26.4249 9.20803C26.2835 9.45664 26.2087 9.73601 26.2087 10.0157C26.2087 10.5891 26.5028 11.1159 26.9958 11.4246C28.6423 12.4527 29.6252 14.222 29.6252 16.1572C29.6252 18.0917 28.6418 19.8607 26.9946 20.889C26.235 21.3653 25.9855 22.3397 26.4266 23.1082C26.7198 23.615 27.2658 23.9299 27.8514 23.9299C28.1544 23.9299 28.4507 23.8458 28.7073 23.6864C31.333 22.0587 32.9003 19.2438 32.9003 16.1572C32.9009 13.7916 31.9807 11.5691 30.3098 9.89827Z" fill="#DDDFFF"/>
<path d="M25.1692 18.4356C23.9101 18.4356 22.8894 17.4149 22.8894 16.1558C22.8894 14.8967 23.9101 13.876 25.1692 13.876C26.4284 13.876 27.449 14.8967 27.449 16.1558C27.449 17.4149 26.4284 18.4356 25.1692 18.4356Z" fill="white"/>
<path d="M39.2678 16.1581C39.2678 21.6346 36.3818 26.4338 32.0482 29.1205C31.737 29.3133 31.3933 29.403 31.0532 29.403C30.3887 29.403 29.7402 29.0562 29.3841 28.4399C28.864 27.5346 29.1755 26.3951 30.0613 25.8398C33.2907 23.8238 35.4416 20.238 35.4416 16.1581C35.4416 12.0782 33.2907 8.48933 30.0613 6.47336C29.4676 6.10087 29.1304 5.46538 29.1304 4.81381C29.1304 4.49606 29.2139 4.17182 29.3841 3.87326C29.9233 2.93583 31.1336 2.62457 32.0516 3.19601C33.0531 3.8188 33.9776 4.5508 34.8058 5.38213C37.5631 8.13941 39.2678 11.9498 39.2678 16.1581Z" fill="url(#paint1_linear_6891_2081)"/>
<defs>
<linearGradient id="paint0_linear_6891_2081" x1="26.1551" y1="11.3378" x2="8.64272" y2="27.7861" gradientUnits="userSpaceOnUse">
<stop stop-color="white"/>
<stop offset="1" stop-color="#FFC19E"/>
</linearGradient>
<linearGradient id="paint1_linear_6891_2081" x1="39.6221" y1="29.8598" x2="30.6458" y2="30.4563" gradientUnits="userSpaceOnUse">
<stop stop-color="#D5D5FF"/>
<stop offset="0.991615" stop-color="#FFDAC8"/>
</linearGradient>
</defs>
</svg>
